# AST/ASF file generated using VICON BodyLanguage
# -----------------------------------------------
:version 1.10
:name VICON
:units
  mass 1.0
  length 0.45
  angle deg
:documentation
   .ast/.asf automatically generated from VICON data using
   VICON BodyBuilder and BodyLanguage model FoxedUp or BRILLIANT.MOD
:root
   order TX TY TZ RX RY RZ
   axis XYZ
   position 0 0 0  
   orientation 0 -0 0 
:bonedata
  begin
     id 1 
     name lhipjoint
     direction 0.500677 -0.737119 0.453848 
     length 2.34727 
     axis 0 -0 0  XYZ
  end
  begin
     id 2 
     name lfemur
     direction 0.34202 -0.939693 0  
     length 7.53653  
     axis 0 -0 20  XYZ
    dof rx ry rz
    limits (-160.0 20.0)
           (-70.0 70.0)
           (-60.0 70.0)
  end
  begin
     id 3 
     name ltibia
     direction 0.34202 -0.939693 0   
     length 6.85572   
     axis 0 -0 20   XYZ
    dof rx
    limits (-10.0 170.0)
  end
  begin
     id 4 
     name lfoot
     direction 0.155313 -0.426718 0.890949   
     length 2.18324   
     axis -90 -1.13533e-015 20   XYZ
    dof rx rz
    limits (-45.0 90.0)
           (-70.0 20.0)
  end
  begin
     id 5 
     name ltoes
     direction 1.53474e-011 -4.21647e-011 1   
     length 1.06748   
     axis -90 -1.13533e-015 20   XYZ
    dof rx
    limits (-90.0 20.0)
  end
  begin
     id 6 
     name rhipjoint
     direction -0.632471 -0.659587 0.406111   
     length 2.62319  
     axis 0 -0 0  XYZ 
  end
  begin
     id 7 
     name rfemur
     direction -0.34202 -0.939693 0   
     length 7.21735   
     axis 0 -0 -20   XYZ
    dof rx ry rz
    limits (-160.0 20.0)
           (-70.0 70.0)
           (-70.0 60.0)
  end
  begin
     id 8 
     name rtibia
     direction -0.34202 -0.939693 0   
     length 7.02558   
     axis 0 -0 -20   XYZ
    dof rx
    limits (-10.0 170.0)
 end
 begin
     id 9 
     name rfoot
     direction -0.16057 -0.441164 0.882945   
     length 2.10014  
     axis -90 1.13533e-015 -20   XYZ
    dof rx rz
    limits (-45.0 90.0)
           (-20.0 70.0)
  end
  begin
     id 10 
     name rtoes
     direction -1.53553e-011 -4.2192e-011 1   
     length 1.02554   
     axis -90 1.13533e-015 -20   XYZ
    dof rx
    limits (-90.0 20.0)
  end
  begin
     id 11 
     name lowerback
     direction 0.0401429 0.998861 -0.0258085   
     length 1.80848   
     axis 0 -0 0   XYZ
    dof rx ry rz
    limits (-20.0 45.0)
           (-30.0 30.0)
           (-30.0 30.0)
  end
  begin
     id 12 
     name upperback
     direction -0.0130978 0.999914 -0.000352645   
     length 1.8116   
     axis 0 -0 0   XYZ
    dof rx ry rz
    limits (-20.0 45.0)
           (-30.0 30.0)
           (-30.0 30.0)
  end
  begin
     id 13 
     name thorax
     direction -0.0300198 0.999453 0.0138573   
     length 1.81778   
     axis 0 -0 0   XYZ
    dof rx ry rz
    limits (-20.0 45.0)
           (-30.0 30.0)
           (-30.0 30.0)
  end
  begin
     id 14 
     name lowerneck
     direction -0.0401726 0.999191 -0.00173647   
     length 2.10594   
     axis 0 -0 0   XYZ
    dof rx ry rz
    limits (-20.0 45.0)
           (-30.0 30.0)
           (-30.0 30.0)
  end
  begin
     id 15 
     name upperneck
     direction 0.0119835 0.998501 0.0534085   
     length 2.07325   
     axis 0 -0 0   XYZ
    dof rx ry rz
    limits (-20.0 45.0)
           (-30.0 30.0)
           (-30.0 30.0)
  end
  begin
     id 16
     name head
     direction 0.00628309 0.999826 0.0175921  
     length 2.15096  
     axis 0 -0 0   XYZ
    dof rx ry rz
    limits (-20.0 45.0)
           (-30.0 30.0)
           (-30.0 30.0)
  end
  begin
     id 17 
     name lclavicle
     direction 0.895501 0.429681 -0.115981  
     length 4.18092  
     axis 0 -0 0   XYZ
    dof ry rz
    limits (-20.0 10.0)
           (0.0 20.0)
  end
  begin
     id 18 
     name lhumerus
     direction 1 -4.48961e-011 -3.38433e-028   
     length 5.77237   
     axis 180 -30 -90   XYZ
    dof rx ry rz
    limits (-60.0 90.0)
           (-90.0 90.0)
           (-90.0 90.0)
  end
  begin
     id 19
     name lradius
     direction 1 -4.4901e-011 1.11983e-026   
     length 2.91878   
     axis 180 -30 -90   XYZ
    dof rx
    limits (-10.0 170.0)
  end
  begin
     id 20
     name lwrist
     direction 1 -4.48934e-011 1.88176e-026   
     length 1.45939   
     axis -1.23311e-014 90 90   XYZ
    dof ry
    limits (-180.0 0.0)
 end
  begin
     id 21 
     name lhand
     direction 1 -4.4895e-011 3.76352e-026   
     length 1.06566   
     axis -2.40147e-014 90 90   XYZ
    dof rx rz
    limits (-90.0 90.0)
           (-45.0 45.0)
  end
  begin
     id 22 
     name lfingers
     direction 1 -4.49005e-011 7.52705e-026   
     length 0.859162   
     axis -4.80295e-014 90 90   XYZ
    dof rx
    limits (0.0 90.0)
  end
  begin
     id 23
     name lthumb
     direction 0.707107 -6.34885e-011 0.707107   
     length 1.23359   
     axis -90 45 -9.86935e-015   XYZ
    dof rx rz
    limits (-45.0 45.0)
           (-45.0 45.0)
  end
  begin
     id 24 
     name rclavicle
     direction -0.91006 0.40451 -0.0903492   
     length 4.23293  
     axis 0 -0 0   XYZ 
    dof ry rz
    limits (-10.0 20.0)
           (-20.0 0.0)
  end
  begin
     id 25 
     name rhumerus
     direction -1 -4.4897e-011 1.7415e-027  
     length 5.49854   
     axis 180 30 90   XYZ
    dof rx ry rz
    limits (-90.0 60.0)
           (-90.0 90.0)
           (-90.0 90.0)
  end
  begin
     id 26 
     name rradius
     direction -1 -4.48963e-011 1.21259e-026   
     length 3.1186   
     axis 180 30 90   XYZ
    dof rx
    limits (-10.0 170.0)
  end
  begin
     id 27 
     name rwrist
     direction -1 -4.48967e-011 1.88176e-026   
     length 1.5593   
     axis -1.23311e-014 -90 -90   XYZ
    dof ry
    limits (-180.0 0.0)
  end
  begin
     id 28
     name rhand
     direction -1 -4.4895e-011 3.76352e-026   
     length 0.71207   
     axis -2.40147e-014 -90 -90   XYZ
    dof rx rz
    limits (-90.0 90.0)
           (-45.0 45.0)
  end
  begin
     id 29
     name rfingers
     direction -1 -4.49005e-011 7.52705e-026   
     length 0.574089   
     axis -4.80295e-014 -90 -90   XYZ
    dof rx
    limits (0.0 90.0)
  end
  begin
     id 30
     name rthumb
     direction -0.707107 -6.34982e-011 0.707107   
     length 0.824281   
     axis -90 -45 9.86935e-015   XYZ
    dof rx rz
    limits (-45.0 45.0)
           (-45.0 45.0)
  end
:hierarchy
  begin
    root lhipjoint rhipjoint lowerback
    lhipjoint lfemur
    lfemur ltibia
    ltibia lfoot
    lfoot ltoes
    rhipjoint rfemur
    rfemur rtibia
    rtibia rfoot
    rfoot rtoes
    lowerback upperback
    upperback thorax
    thorax lowerneck lclavicle rclavicle
    lowerneck upperneck
    upperneck head
    lclavicle lhumerus
    lhumerus lradius
    lradius lwrist
    lwrist lhand lthumb
    lhand lfingers
    rclavicle rhumerus
    rhumerus rradius
    rradius rwrist
    rwrist rhand rthumb
    rhand rfingers
  end

#!OML:ASF C:\ViconDB\ViconDB\414\Spring2016\042216\male.ASF
:FULLY-SPECIFIED
:DEGREES
416
root 19.1625 17.0428 12.3983 -167.546 84.0028 -164.319
lowerback 4.36796 -2.62735 3.47449
upperback -0.994939 -3.29542 0.226119
thorax -3.65891 -1.70904 -1.46056
lowerneck -4.85156 1.41322 -7.33459
upperneck -8.57771 2.65193 5.5799
head -2.10253 1.53431 3.1042
rclavicle 5.08765e-014 -7.55382e-015
rhumerus -47.2332 9.59329 -96.1899
rradius 74.376
rwrist 1.06087
rhand 12.5607 -17.0963
rfingers 7.12502
rthumb 37.5509 -43.0163
lclavicle 5.08765e-014 -7.55382e-015
lhumerus -28.9707 -1.38623 99.4086
lradius 99.8759
lwrist 5.68246
lhand -19.4848 -0.124586
lfingers 7.12502
lthumb 6.83717 29.745
rfemur -26.0293 -6.20346 17.6664
rtibia 85.5604
rfoot -8.91988 -9.25972
rtoes -17.4881
lfemur -2.72294 -1.83482 -23.5049
ltibia 36.3217
lfoot -29.167 13.5888
ltoes -21.7968
417
root 19.629 17.1198 12.3616 -168.862 83.8771 -165.581
lowerback 3.9203 -2.98646 3.83141
upperback -1.12038 -3.76738 0.309756
thorax -3.5804 -1.95055 -1.55389
lowerneck -4.60642 1.91818 -7.27128
upperneck -8.51471 3.25313 4.87673
head -2.1507 1.83406 2.84282
rclavicle 2.70968e-014 -8.94531e-015
rhumerus -49.1151 9.85739 -95.5963
rradius 76.073
rwrist -0.273561
rhand 13.0168 -16.8932
rfingers 7.12502
rthumb 37.9817 -42.6974
lclavicle 2.70968e-014 -8.94531e-015
lhumerus -28.8248 -2.77346 100.529
lradius 102.133
lwrist 3.75497
lhand -18.9896 -0.479726
lfingers 7.12502
lthumb 7.31517 29.3738
rfemur -27.5769 -6.86889 17.6927
rtibia 83.2302
rfoot -9.48301 -9.14619
rtoes -17.5079
lfemur 0.377714 -2.71348 -23.8968
ltibia 33.6533
lfoot -27.6445 13.8777
ltoes -23.1703
418
root 20.1042 17.2156 12.3338 -170.016 83.6959 -166.61
lowerback 3.38035 -3.28339 4.36434
upperback -1.14523 -4.16298 0.270432
thorax -3.36771 -2.15605 -1.88971
lowerneck -4.55427 2.26938 -7.31015
upperneck -8.37746 3.68164 4.42611
head -2.13299 2.05024 2.69107
rclavicle 2.18042e-014 2.18663e-015
rhumerus -50.8417 9.94229 -95.1201
rradius 77.935
rwrist -2.37551
rhand 11.9717 -17.6273
rfingers 7.12502
rthumb 36.9939 -43.6933
lclavicle 2.18042e-014 2.18663e-015
lhumerus -28.7224 -4.28652 101.547
lradius 104.143
lwrist 2.28744
lhand -18.3258 -0.985195
lfingers 7.12502
lthumb 7.95585 28.8451
rfemur -28.6834 -7.39869 17.8925
rtibia 80.2524
rfoot -9.93897 -8.78388
rtoes -17.485
lfemur 3.5035 -3.63306 -24.2099
ltibia 30.9168
lfoot -25.4989 13.8355
ltoes -25.0726
419
root 20.582 17.322 12.3223 -172.637 83.4943 -169.15
lowerback 2.69382 -3.61764 4.44937
upperback -1.16335 -4.64123 0.233168
thorax -3.04285 -2.39154 -1.9848
lowerneck -4.59107 2.66974 -7.18009
upperneck -8.06586 4.16535 3.8662
head -2.03494 2.28784 2.47253
rclavicle -5.29513e-014 -3.97569e-015
rhumerus -52.5405 10.0606 -94.7259
rradius 79.8138
rwrist -3.52352
rhand 11.7123 -17.7814
rfingers 7.12502
rthumb 36.7486 -43.9105
lclavicle -5.29513e-014 -3.97569e-015
lhumerus -28.7844 -5.52256 102.334
lradius 105.957
lwrist 1.22564
lhand -17.0487 -1.86543
lfingers 7.12502
lthumb 9.18831 27.9144
rfemur -29.513 -7.83302 18.0557
rtibia 76.7495
rfoot -10.2029 -8.18689
rtoes -18.2924
lfemur 6.46397 -4.47433 -24.613
ltibia 28.1835
lfoot -22.5901 13.6654
ltoes -27.8292
420
root 21.0596 17.4247 12.3174 -173.557 83.3763 -170.005
lowerback 2.03873 -3.85811 4.75379
upperback -1.21971 -4.98586 0.170043
thorax -2.78987 -2.56612 -2.23909
lowerneck -4.73901 3.02929 -6.97744
upperneck -7.61637 4.60411 3.38993
head -1.86676 2.49804 2.27458
rclavicle 1.2598e-014 3.18055e-015
rhumerus -54.1511 9.71233 -94.1826
rradius 81.7234
rwrist -4.25371
rhand 12.0528 -18.0042
rfingers 7.12502
rthumb 37.0707 -44.0504
lclavicle 1.2598e-014 3.18055e-015
lhumerus -29.1059 -6.42991 103.252
lradius 107.795
lwrist 0.89129
lhand -15.472 -2.48364
lfingers 7.12502
lthumb 10.7095 27.2234
rfemur -30.0693 -7.63657 18.4866
rtibia 72.7283
rfoot -10.1293 -7.67153
rtoes -18.7244
lfemur 9.25992 -5.49649 -24.8186
ltibia 25.575
lfoot -19.6071 12.9618
ltoes -28.7662
421
root 21.5429 17.5051 12.3281 -174.024 83.3817 -170.38
lowerback 1.33383 -3.99554 4.92467
upperback -1.29776 -5.20207 0.112232
thorax -2.51258 -2.67358 -2.42904
lowerneck -4.8639 3.25732 -6.92157
upperneck -6.96279 4.87678 3.13793
head -1.63757 2.62083 2.18363
rclavicle -4.63665e-014 -5.96354e-015
rhumerus -55.8937 9.37354 -93.8026
rradius 83.4365
rwrist -4.60787
rhand 11.7244 -17.869
rfingers 7.12502
rthumb 36.7599 -43.9951
lclavicle -4.63665e-014 -5.96354e-015
lhumerus -29.7227 -8.15469 103.816
lradius 109.326
lwrist 1.81723
lhand -14.3867 -2.78655
lfingers 7.12502
lthumb 11.7562 26.8635
rfemur -30.5367 -7.71287 18.934
rtibia 68.4902
rfoot -10.2508 -6.88544
rtoes -17.2499
lfemur 11.6379 -6.00605 -24.7454
ltibia 23.739
lfoot -16.6334 11.5349
ltoes -29.9949
422
root 22.0323 17.5737 12.3448 -171.339 83.371 -167.707
lowerback 0.0751036 -4.06276 5.38151
upperback -1.16359 -5.35866 0.206942
thorax -1.71479 -2.737 -2.6801
lowerneck -5.22326 3.45397 -7.00556
upperneck -6.41043 5.14501 2.97829
head -1.4093 2.7493 2.1549
rclavicle 4.56956e-014 -1.59028e-014
rhumerus -57.1743 9.03245 -93.1703
rradius 84.9222
rwrist -4.52205
rhand 11.7403 -17.2169
rfingers 7.12502
rthumb 36.775 -43.3392
lclavicle 4.56956e-014 -1.59028e-014
lhumerus -30.0338 -9.74751 104.541
lradius 110.632
lwrist 2.63739
lhand -13.5071 -2.52592
lfingers 7.12502
lthumb 12.6044 27.0738
rfemur -30.8209 -7.44356 19.7695
rtibia 63.9008
rfoot -9.99152 -6.62622
rtoes -18.0924
lfemur 13.4249 -6.31957 -24.1246
ltibia 22.8403
lfoot -14.1283 9.96923
ltoes -30.1134
423
root 22.5038 17.5814 12.3694 -170.478 83.3972 -166.903
lowerback -0.807235 -4.1039 5.42977
upperback -1.21939 -5.46315 0.280163
thorax -1.28499 -2.77897 -2.69621
lowerneck -5.58977 3.66004 -6.7909
upperneck -5.60728 5.39917 2.56176
head -1.08197 2.85913 1.99328
rclavicle 4.86525e-014 -1.19271e-014
rhumerus -58.6856 8.51403 -92.519
rradius 86.8792
rwrist -5.01659
rhand 11.9874 -17.1866
rfingers 7.12502
rthumb 37.0088 -43.2488
lclavicle 4.86525e-014 -1.19271e-014
lhumerus -30.5561 -10.9788 105.29
lradius 111.442
lwrist 3.27608
lhand -12.8026 -2.27996
lfingers 7.12502
lthumb 13.2834 27.2767
rfemur -31.1841 -6.97967 20.3365
rtibia 59.2106
rfoot -9.36628 -7.13109
rtoes -17.395
lfemur 14.4823 -6.6025 -23.6754
ltibia 23.3332
lfoot -11.9104 8.24401
ltoes -30.104
424
root 22.9659 17.623 12.4068 -173.28 83.6516 -169.808
lowerback -1.16316 -4.10429 4.90404
upperback -1.46019 -5.47482 0.239954
thorax -1.28865 -2.78351 -2.46554
lowerneck -6.0101 3.83186 -6.88886
upperneck -4.66963 5.64149 2.59647
head -0.729369 2.9633 2.04333
rclavicle 2.94201e-014 -1.55052e-014
rhumerus -60.2457 8.40055 -92.1422
rradius 88.5019
rwrist -5.93109
rhand 11.5392 -17.3723
rfingers 7.12502
rthumb 36.5847 -43.543
lclavicle 2.94201e-014 -1.55052e-014
lhumerus -31.292 -12.4158 105.843
lradius 111.96
lwrist 3.90023
lhand -12.5989 -1.7332
lfingers 7.12502
lthumb 13.4798 27.8106
rfemur -31.2811 -5.92039 20.3118
rtibia 54.0625
rfoot -8.47221 -8.67547
rtoes -16.9299
lfemur 14.7405 -6.36109 -23.5188
ltibia 25.2467
lfoot -10.3893 6.38951
ltoes -28.4612
